<svg xmlns="http://www.w3.org/2000/svg" version="1.1" xmlns:xlink="http://www.w3.org/1999/xlink" xmlns:svgjs="http://svgjs.com/svgjs" width="1438" height="560" preserveAspectRatio="none" viewBox="0 0 1438 560"><g mask="url(&quot;#SvgjsMask1568&quot;)" fill="none"><rect width="1438" height="560" x="0" y="0" fill="url(#SvgjsLinearGradient1569)"></rect><path d="M-38 353.03L-38 353.03" stroke="#132e65" stroke-width="1.5"></path><path d="M-38 353.03L38.9 354.71" stroke="#132e65" stroke-width="1.5"></path><path d="M-38 353.03L-61.11 506.28" stroke="#132e65" stroke-width="1.5"></path><path d="M-38 353.03L92.37 515.16" stroke="#132e65" stroke-width="1.5"></path><path d="M-61.11 506.28L-61.11 506.28" stroke="#132e65" stroke-width="1.5"></path><path d="M-61.11 506.28L92.37 515.16" stroke="#132e65" stroke-width="1.5"></path><path d="M-61.11 506.28L38.9 354.71" stroke="#132e65" stroke-width="1.5"></path><path d="M-61.11 506.28L60.63 653.45" stroke="#132e65" stroke-width="1.5"></path><path d="M-42.49 696.65L-42.49 696.65" stroke="#132e65" stroke-width="1.5"></path><path d="M-42.49 696.65L60.63 653.45" stroke="#132e65" stroke-width="1.5"></path><path d="M-42.49 696.65L-61.11 506.28" stroke="#132e65" stroke-width="1.5"></path><path d="M-42.49 696.65L92.37 515.16" stroke="#132e65" stroke-width="1.5"></path><path d="M38.9 354.71L38.9 354.71" stroke="#132e65" stroke-width="1.5"></path><path d="M38.9 354.71L190.36 361.21" stroke="#132e65" stroke-width="1.5"></path><path d="M38.9 354.71L92.37 515.16" stroke="#132e65" stroke-width="1.5"></path><path d="M92.37 515.16L92.37 515.16" stroke="#132e65" stroke-width="1.5"></path><path d="M92.37 515.16L206.77 531.52" stroke="#132e65" stroke-width="1.5"></path><path d="M92.37 515.16L60.63 653.45" stroke="#132e65" stroke-width="1.5"></path><path d="M60.63 653.45L60.63 653.45" stroke="#132e65" stroke-width="1.5"></path><path d="M60.63 653.45L219.45 657.2" stroke="#132e65" stroke-width="1.5"></path><path d="M60.63 653.45L206.77 531.52" stroke="#132e65" stroke-width="1.5"></path><path d="M190.36 361.21L190.36 361.21" stroke="#132e65" stroke-width="1.5"></path><path d="M190.36 361.21L206.77 531.52" stroke="#132e65" stroke-width="1.5"></path><path d="M190.36 361.21L92.37 515.16" stroke="#132e65" stroke-width="1.5"></path><path d="M190.36 361.21L383.71 372.8" stroke="#132e65" stroke-width="1.5"></path><path d="M206.77 531.52L206.77 531.52" stroke="#132e65" stroke-width="1.5"></path><path d="M206.77 531.52L219.45 657.2" stroke="#132e65" stroke-width="1.5"></path><path d="M206.77 531.52L367.06 560.93" stroke="#132e65" stroke-width="1.5"></path><path d="M219.45 657.2L219.45 657.2" stroke="#132e65" stroke-width="1.5"></path><path d="M219.45 657.2L367.06 560.93" stroke="#132e65" stroke-width="1.5"></path><path d="M219.45 657.2L92.37 515.16" stroke="#132e65" stroke-width="1.5"></path><path d="M219.45 657.2L406.38 695.03" stroke="#132e65" stroke-width="1.5"></path><path d="M383.71 372.8L383.71 372.8" stroke="#132e65" stroke-width="1.5"></path><path d="M383.71 372.8L513.35 403.09" stroke="#132e65" stroke-width="1.5"></path><path d="M383.71 372.8L367.06 560.93" stroke="#132e65" stroke-width="1.5"></path><path d="M383.71 372.8L556.35 529.9" stroke="#132e65" stroke-width="1.5"></path><path d="M383.71 372.8L206.77 531.52" stroke="#132e65" stroke-width="1.5"></path><path d="M367.06 560.93L367.06 560.93" stroke="#132e65" stroke-width="1.5"></path><path d="M367.06 560.93L406.38 695.03" stroke="#132e65" stroke-width="1.5"></path><path d="M406.38 695.03L406.38 695.03" stroke="#132e65" stroke-width="1.5"></path><path d="M406.38 695.03L543.29 664.65" stroke="#132e65" stroke-width="1.5"></path><path d="M513.35 403.09L513.35 403.09" stroke="#132e65" stroke-width="1.5"></path><path d="M513.35 403.09L556.35 529.9" stroke="#132e65" stroke-width="1.5"></path><path d="M513.35 403.09L686.21 357.93" stroke="#132e65" stroke-width="1.5"></path><path d="M556.35 529.9L556.35 529.9" stroke="#132e65" stroke-width="1.5"></path><path d="M556.35 529.9L691.26 535.37" stroke="#132e65" stroke-width="1.5"></path><path d="M556.35 529.9L543.29 664.65" stroke="#132e65" stroke-width="1.5"></path><path d="M556.35 529.9L677.86 651.13" stroke="#132e65" stroke-width="1.5"></path><path d="M556.35 529.9L367.06 560.93" stroke="#132e65" stroke-width="1.5"></path><path d="M556.35 529.9L686.21 357.93" stroke="#132e65" stroke-width="1.5"></path><path d="M543.29 664.65L543.29 664.65" stroke="#132e65" stroke-width="1.5"></path><path d="M543.29 664.65L677.86 651.13" stroke="#132e65" stroke-width="1.5"></path><path d="M686.21 357.93L686.21 357.93" stroke="#132e65" stroke-width="1.5"></path><path d="M686.21 357.93L860.59 339.38" stroke="#132e65" stroke-width="1.5"></path><path d="M686.21 357.93L691.26 535.37" stroke="#132e65" stroke-width="1.5"></path><path d="M686.21 357.93L837.7 218.24" stroke="#132e65" stroke-width="1.5"></path><path d="M691.26 535.37L691.26 535.37" stroke="#132e65" stroke-width="1.5"></path><path d="M691.26 535.37L677.86 651.13" stroke="#132e65" stroke-width="1.5"></path><path d="M691.26 535.37L823.9 522.75" stroke="#132e65" stroke-width="1.5"></path><path d="M677.86 651.13L677.86 651.13" stroke="#132e65" stroke-width="1.5"></path><path d="M677.86 651.13L841.3 710.48" stroke="#132e65" stroke-width="1.5"></path><path d="M677.86 651.13L823.9 522.75" stroke="#132e65" stroke-width="1.5"></path><path d="M677.86 651.13L406.38 695.03" stroke="#132e65" stroke-width="1.5"></path><path d="M837.7 218.24L837.7 218.24" stroke="#132e65" stroke-width="1.5"></path><path d="M837.7 218.24L942.27 217.18" stroke="#132e65" stroke-width="1.5"></path><path d="M837.7 218.24L860.59 339.38" stroke="#132e65" stroke-width="1.5"></path><path d="M837.7 218.24L978.44 76.4" stroke="#132e65" stroke-width="1.5"></path><path d="M860.59 339.38L860.59 339.38" stroke="#132e65" stroke-width="1.5"></path><path d="M860.59 339.38L951.68 401.66" stroke="#132e65" stroke-width="1.5"></path><path d="M860.59 339.38L942.27 217.18" stroke="#132e65" stroke-width="1.5"></path><path d="M823.9 522.75L823.9 522.75" stroke="#132e65" stroke-width="1.5"></path><path d="M823.9 522.75L967.49 539.72" stroke="#132e65" stroke-width="1.5"></path><path d="M823.9 522.75L951.68 401.66" stroke="#132e65" stroke-width="1.5"></path><path d="M823.9 522.75L860.59 339.38" stroke="#132e65" stroke-width="1.5"></path><path d="M823.9 522.75L841.3 710.48" stroke="#132e65" stroke-width="1.5"></path><path d="M841.3 710.48L841.3 710.48" stroke="#132e65" stroke-width="1.5"></path><path d="M841.3 710.48L958.93 663.2" stroke="#132e65" stroke-width="1.5"></path><path d="M841.3 710.48L967.49 539.72" stroke="#132e65" stroke-width="1.5"></path><path d="M841.3 710.48L691.26 535.37" stroke="#132e65" stroke-width="1.5"></path><path d="M962.16 -101.62L962.16 -101.62" stroke="#132e65" stroke-width="1.5"></path><path d="M962.16 -101.62L1111.06 -107.42" stroke="#132e65" stroke-width="1.5"></path><path d="M962.16 -101.62L978.44 76.4" stroke="#132e65" stroke-width="1.5"></path><path d="M962.16 -101.62L1102.23 52.85" stroke="#132e65" stroke-width="1.5"></path><path d="M962.16 -101.62L942.27 217.18" stroke="#132e65" stroke-width="1.5"></path><path d="M962.16 -101.62L1239.59 74.39" stroke="#132e65" stroke-width="1.5"></path><path d="M978.44 76.4L978.44 76.4" stroke="#132e65" stroke-width="1.5"></path><path d="M978.44 76.4L1102.23 52.85" stroke="#132e65" stroke-width="1.5"></path><path d="M942.27 217.18L942.27 217.18" stroke="#132e65" stroke-width="1.5"></path><path d="M942.27 217.18L978.44 76.4" stroke="#132e65" stroke-width="1.5"></path><path d="M951.68 401.66L951.68 401.66" stroke="#132e65" stroke-width="1.5"></path><path d="M951.68 401.66L967.49 539.72" stroke="#132e65" stroke-width="1.5"></path><path d="M951.68 401.66L1101.29 381.38" stroke="#132e65" stroke-width="1.5"></path><path d="M967.49 539.72L967.49 539.72" stroke="#132e65" stroke-width="1.5"></path><path d="M967.49 539.72L958.93 663.2" stroke="#132e65" stroke-width="1.5"></path><path d="M958.93 663.2L958.93 663.2" stroke="#132e65" stroke-width="1.5"></path><path d="M1111.06 -107.42L1111.06 -107.42" stroke="#132e65" stroke-width="1.5"></path><path d="M1111.06 -107.42L1102.23 52.85" stroke="#132e65" stroke-width="1.5"></path><path d="M1111.06 -107.42L1306.51 -40.57" stroke="#132e65" stroke-width="1.5"></path><path d="M1111.06 -107.42L1239.59 74.39" stroke="#132e65" stroke-width="1.5"></path><path d="M1102.23 52.85L1102.23 52.85" stroke="#132e65" stroke-width="1.5"></path><path d="M1102.23 52.85L1239.59 74.39" stroke="#132e65" stroke-width="1.5"></path><path d="M1154.2 247.81L1154.2 247.81" stroke="#132e65" stroke-width="1.5"></path><path d="M1154.2 247.81L1101.29 381.38" stroke="#132e65" stroke-width="1.5"></path><path d="M1154.2 247.81L1303.22 252.08" stroke="#132e65" stroke-width="1.5"></path><path d="M1154.2 247.81L1261.9 368.05" stroke="#132e65" stroke-width="1.5"></path><path d="M1154.2 247.81L1239.59 74.39" stroke="#132e65" stroke-width="1.5"></path><path d="M1154.2 247.81L1102.23 52.85" stroke="#132e65" stroke-width="1.5"></path><path d="M1154.2 247.81L942.27 217.18" stroke="#132e65" stroke-width="1.5"></path><path d="M1101.29 381.38L1101.29 381.38" stroke="#132e65" stroke-width="1.5"></path><path d="M1101.29 381.38L1151.33 533.33" stroke="#132e65" stroke-width="1.5"></path><path d="M1101.29 381.38L1261.9 368.05" stroke="#132e65" stroke-width="1.5"></path><path d="M1101.29 381.38L967.49 539.72" stroke="#132e65" stroke-width="1.5"></path><path d="M1151.33 533.33L1151.33 533.33" stroke="#132e65" stroke-width="1.5"></path><path d="M1151.33 533.33L1271.63 501.96" stroke="#132e65" stroke-width="1.5"></path><path d="M1151.33 533.33L1148.38 674.66" stroke="#132e65" stroke-width="1.5"></path><path d="M1148.38 674.66L1148.38 674.66" stroke="#132e65" stroke-width="1.5"></path><path d="M1148.38 674.66L1298.94 666.07" stroke="#132e65" stroke-width="1.5"></path><path d="M1148.38 674.66L958.93 663.2" stroke="#132e65" stroke-width="1.5"></path><path d="M1306.51 -40.57L1306.51 -40.57" stroke="#132e65" stroke-width="1.5"></path><path d="M1306.51 -40.57L1396.71 -64.44" stroke="#132e65" stroke-width="1.5"></path><path d="M1306.51 -40.57L1239.59 74.39" stroke="#132e65" stroke-width="1.5"></path><path d="M1306.51 -40.57L1455.87 102.73" stroke="#132e65" stroke-width="1.5"></path><path d="M1306.51 -40.57L1102.23 52.85" stroke="#132e65" stroke-width="1.5"></path><path d="M1306.51 -40.57L1545.65 -62.57" stroke="#132e65" stroke-width="1.5"></path><path d="M1239.59 74.39L1239.59 74.39" stroke="#132e65" stroke-width="1.5"></path><path d="M1239.59 74.39L1303.22 252.08" stroke="#132e65" stroke-width="1.5"></path><path d="M1239.59 74.39L1396.71 -64.44" stroke="#132e65" stroke-width="1.5"></path><path d="M1303.22 252.08L1303.22 252.08" stroke="#132e65" stroke-width="1.5"></path><path d="M1303.22 252.08L1261.9 368.05" stroke="#132e65" stroke-width="1.5"></path><path d="M1303.22 252.08L1402.55 364.9" stroke="#132e65" stroke-width="1.5"></path><path d="M1303.22 252.08L1454.91 225.76" stroke="#132e65" stroke-width="1.5"></path><path d="M1261.9 368.05L1261.9 368.05" stroke="#132e65" stroke-width="1.5"></path><path d="M1261.9 368.05L1271.63 501.96" stroke="#132e65" stroke-width="1.5"></path><path d="M1271.63 501.96L1271.63 501.96" stroke="#132e65" stroke-width="1.5"></path><path d="M1271.63 501.96L1298.94 666.07" stroke="#132e65" stroke-width="1.5"></path><path d="M1271.63 501.96L1435.94 555.02" stroke="#132e65" stroke-width="1.5"></path><path d="M1271.63 501.96L1402.55 364.9" stroke="#132e65" stroke-width="1.5"></path><path d="M1271.63 501.96L1407.59 649.97" stroke="#132e65" stroke-width="1.5"></path><path d="M1298.94 666.07L1298.94 666.07" stroke="#132e65" stroke-width="1.5"></path><path d="M1298.94 666.07L1407.59 649.97" stroke="#132e65" stroke-width="1.5"></path><path d="M1298.94 666.07L1435.94 555.02" stroke="#132e65" stroke-width="1.5"></path><path d="M1396.71 -64.44L1396.71 -64.44" stroke="#132e65" stroke-width="1.5"></path><path d="M1396.71 -64.44L1545.65 -62.57" stroke="#132e65" stroke-width="1.5"></path><path d="M1455.87 102.73L1455.87 102.73" stroke="#132e65" stroke-width="1.5"></path><path d="M1455.87 102.73L1563.13 94.8" stroke="#132e65" stroke-width="1.5"></path><path d="M1455.87 102.73L1454.91 225.76" stroke="#132e65" stroke-width="1.5"></path><path d="M1455.87 102.73L1396.71 -64.44" stroke="#132e65" stroke-width="1.5"></path><path d="M1455.87 102.73L1545.65 -62.57" stroke="#132e65" stroke-width="1.5"></path><path d="M1455.87 102.73L1589.39 250.22" stroke="#132e65" stroke-width="1.5"></path><path d="M1454.91 225.76L1454.91 225.76" stroke="#132e65" stroke-width="1.5"></path><path d="M1454.91 225.76L1589.39 250.22" stroke="#132e65" stroke-width="1.5"></path><path d="M1454.91 225.76L1402.55 364.9" stroke="#132e65" stroke-width="1.5"></path><path d="M1402.55 364.9L1402.55 364.9" stroke="#132e65" stroke-width="1.5"></path><path d="M1402.55 364.9L1261.9 368.05" stroke="#132e65" stroke-width="1.5"></path><path d="M1435.94 555.02L1435.94 555.02" stroke="#132e65" stroke-width="1.5"></path><path d="M1435.94 555.02L1407.59 649.97" stroke="#132e65" stroke-width="1.5"></path><path d="M1435.94 555.02L1549.83 518.83" stroke="#132e65" stroke-width="1.5"></path><path d="M1435.94 555.02L1579.69 666.75" stroke="#132e65" stroke-width="1.5"></path><path d="M1407.59 649.97L1407.59 649.97" stroke="#132e65" stroke-width="1.5"></path><path d="M1407.59 649.97L1579.69 666.75" stroke="#132e65" stroke-width="1.5"></path><path d="M1407.59 649.97L1549.83 518.83" stroke="#132e65" stroke-width="1.5"></path><path d="M1545.65 -62.57L1545.65 -62.57" stroke="#132e65" stroke-width="1.5"></path><path d="M1545.65 -62.57L1563.13 94.8" stroke="#132e65" stroke-width="1.5"></path><path d="M1545.65 -62.57L1454.91 225.76" stroke="#132e65" stroke-width="1.5"></path><path d="M1563.13 94.8L1563.13 94.8" stroke="#132e65" stroke-width="1.5"></path><path d="M1563.13 94.8L1589.39 250.22" stroke="#132e65" stroke-width="1.5"></path><path d="M1563.13 94.8L1454.91 225.76" stroke="#132e65" stroke-width="1.5"></path><path d="M1563.13 94.8L1396.71 -64.44" stroke="#132e65" stroke-width="1.5"></path><path d="M1589.39 250.22L1589.39 250.22" stroke="#132e65" stroke-width="1.5"></path><path d="M1589.39 250.22L1562.71 363.77" stroke="#132e65" stroke-width="1.5"></path><path d="M1562.71 363.77L1562.71 363.77" stroke="#132e65" stroke-width="1.5"></path><path d="M1562.71 363.77L1549.83 518.83" stroke="#132e65" stroke-width="1.5"></path><path d="M1562.71 363.77L1402.55 364.9" stroke="#132e65" stroke-width="1.5"></path><path d="M1562.71 363.77L1454.91 225.76" stroke="#132e65" stroke-width="1.5"></path><path d="M1549.83 518.83L1549.83 518.83" stroke="#132e65" stroke-width="1.5"></path><path d="M1579.69 666.75L1579.69 666.75" stroke="#132e65" stroke-width="1.5"></path><path d="M1579.69 666.75L1549.83 518.83" stroke="#132e65" stroke-width="1.5"></path><path d="M1579.69 666.75L1298.94 666.07" stroke="#132e65" stroke-width="1.5"></path><path d="M1579.69 666.75L1562.71 363.77" stroke="#132e65" stroke-width="1.5"></path><circle r="5" cx="-38" cy="353.03" fill="#132e65"></circle><circle r="5" cx="-61.11" cy="506.28" fill="#132e65"></circle><circle r="5" cx="-42.49" cy="696.65" fill="#132e65"></circle><circle r="5" cx="38.9" cy="354.71" fill="#132e65"></circle><circle r="5" cx="92.37" cy="515.16" fill="#132e65"></circle><circle r="5" cx="60.63" cy="653.45" fill="#132e65"></circle><circle r="5" cx="190.36" cy="361.21" fill="#132e65"></circle><circle r="5" cx="206.77" cy="531.52" fill="#132e65"></circle><circle r="5" cx="219.45" cy="657.2" fill="#132e65"></circle><circle r="5" cx="383.71" cy="372.8" fill="#132e65"></circle><circle r="5" cx="367.06" cy="560.93" fill="#132e65"></circle><circle r="5" cx="406.38" cy="695.03" fill="#132e65"></circle><circle r="5" cx="513.35" cy="403.09" fill="#132e65"></circle><circle r="5" cx="556.35" cy="529.9" fill="#132e65"></circle><circle r="5" cx="543.29" cy="664.65" fill="#132e65"></circle><circle r="5" cx="686.21" cy="357.93" fill="#132e65"></circle><circle r="5" cx="691.26" cy="535.37" fill="#132e65"></circle><circle r="5" cx="677.86" cy="651.13" fill="#132e65"></circle><circle r="5" cx="837.7" cy="218.24" fill="#132e65"></circle><circle r="5" cx="860.59" cy="339.38" fill="#132e65"></circle><circle r="5" cx="823.9" cy="522.75" fill="#132e65"></circle><circle r="5" cx="841.3" cy="710.48" fill="#132e65"></circle><circle r="5" cx="962.16" cy="-101.62" fill="#132e65"></circle><circle r="5" cx="978.44" cy="76.4" fill="#132e65"></circle><circle r="5" cx="942.27" cy="217.18" fill="#132e65"></circle><circle r="5" cx="951.68" cy="401.66" fill="#132e65"></circle><circle r="5" cx="967.49" cy="539.72" fill="#132e65"></circle><circle r="5" cx="958.93" cy="663.2" fill="#132e65"></circle><circle r="5" cx="1111.06" cy="-107.42" fill="#132e65"></circle><circle r="5" cx="1102.23" cy="52.85" fill="#132e65"></circle><circle r="5" cx="1154.2" cy="247.81" fill="#132e65"></circle><circle r="5" cx="1101.29" cy="381.38" fill="#132e65"></circle><circle r="5" cx="1151.33" cy="533.33" fill="#132e65"></circle><circle r="5" cx="1148.38" cy="674.66" fill="#132e65"></circle><circle r="5" cx="1306.51" cy="-40.57" fill="#132e65"></circle><circle r="5" cx="1239.59" cy="74.39" fill="#132e65"></circle><circle r="5" cx="1303.22" cy="252.08" fill="#132e65"></circle><circle r="5" cx="1261.9" cy="368.05" fill="#132e65"></circle><circle r="5" cx="1271.63" cy="501.96" fill="#132e65"></circle><circle r="5" cx="1298.94" cy="666.07" fill="#132e65"></circle><circle r="5" cx="1396.71" cy="-64.44" fill="#132e65"></circle><circle r="5" cx="1455.87" cy="102.73" fill="#132e65"></circle><circle r="5" cx="1454.91" cy="225.76" fill="#132e65"></circle><circle r="5" cx="1402.55" cy="364.9" fill="#132e65"></circle><circle r="5" cx="1435.94" cy="555.02" fill="#132e65"></circle><circle r="5" cx="1407.59" cy="649.97" fill="#132e65"></circle><circle r="5" cx="1545.65" cy="-62.57" fill="#132e65"></circle><circle r="5" cx="1563.13" cy="94.8" fill="#132e65"></circle><circle r="5" cx="1589.39" cy="250.22" fill="#132e65"></circle><circle r="5" cx="1562.71" cy="363.77" fill="#132e65"></circle><circle r="5" cx="1549.83" cy="518.83" fill="#132e65"></circle><circle r="5" cx="1579.69" cy="666.75" fill="#132e65"></circle><path d="M709.7 400.89L709.7 400.89" stroke="hsl(228.5, 77.2%, 51.5%)" stroke-width="1.5"></path><path d="M709.7 400.89L668.29 521.68" stroke="hsl(228.5, 77.2%, 51.5%)" stroke-width="1.5"></path><path d="M709.7 400.89L798.39 503.19" stroke="hsl(228.5, 77.2%, 51.5%)" stroke-width="1.5"></path><path d="M709.7 400.89L858.49 347.55" stroke="hsl(228.5, 77.2%, 51.5%)" stroke-width="1.5"></path><path d="M709.7 400.89L488.83 535.56" stroke="hsl(228.5, 77.2%, 51.5%)" stroke-width="1.5"></path><path d="M667.66 675.08L667.66 675.08" stroke="hsl(228.5, 77.2%, 51.5%)" stroke-width="1.5"></path><path d="M667.66 675.08L550.27 691.24" stroke="hsl(228.5, 77.2%, 51.5%)" stroke-width="1.5"></path><path d="M667.66 675.08L668.29 521.68" stroke="hsl(228.5, 77.2%, 51.5%)" stroke-width="1.5"></path><path d="M667.66 675.08L834.19 710.05" stroke="hsl(228.5, 77.2%, 51.5%)" stroke-width="1.5"></path><path d="M667.66 675.08L798.39 503.19" stroke="hsl(228.5, 77.2%, 51.5%)" stroke-width="1.5"></path><path d="M941.48 658.17L941.48 658.17" stroke="hsl(228.5, 77.2%, 51.5%)" stroke-width="1.5"></path><path d="M941.48 658.17L834.19 710.05" stroke="hsl(228.5, 77.2%, 51.5%)" stroke-width="1.5"></path><path d="M941.48 658.17L1007.21 503.39" stroke="hsl(228.5, 77.2%, 51.5%)" stroke-width="1.5"></path><path d="M941.48 658.17L1144.35 639.21" stroke="hsl(228.5, 77.2%, 51.5%)" stroke-width="1.5"></path><path d="M941.48 658.17L798.39 503.19" stroke="hsl(228.5, 77.2%, 51.5%)" stroke-width="1.5"></path><path d="M1107.8 258.53L1107.8 258.53" stroke="hsl(228.5, 77.2%, 51.5%)" stroke-width="1.5"></path><path d="M1107.8 258.53L1097.36 411.43" stroke="hsl(228.5, 77.2%, 51.5%)" stroke-width="1.5"></path><path d="M1107.8 258.53L972.16 362.6" stroke="hsl(228.5, 77.2%, 51.5%)" stroke-width="1.5"></path><path d="M1107.8 258.53L1286.25 388.11" stroke="hsl(228.5, 77.2%, 51.5%)" stroke-width="1.5"></path><path d="M1107.8 258.53L1144.89 506.55" stroke="hsl(228.5, 77.2%, 51.5%)" stroke-width="1.5"></path><path d="M1107.8 258.53L1303.63 91.64" stroke="hsl(228.5, 77.2%, 51.5%)" stroke-width="1.5"></path><path d="M1303.63 91.64L1303.63 91.64" stroke="hsl(228.5, 77.2%, 51.5%)" stroke-width="1.5"></path><path d="M1303.63 91.64L1410.25 51.67" stroke="hsl(228.5, 77.2%, 51.5%)" stroke-width="1.5"></path><path d="M1303.63 91.64L1257.81 -80.58" stroke="hsl(228.5, 77.2%, 51.5%)" stroke-width="1.5"></path><path d="M1303.63 91.64L1424.88 -80.86" stroke="hsl(228.5, 77.2%, 51.5%)" stroke-width="1.5"></path><path d="M1449.78 536.77L1449.78 536.77" stroke="hsl(228.5, 77.2%, 51.5%)" stroke-width="1.5"></path><path d="M1449.78 536.77L1558.78 500.32" stroke="hsl(228.5, 77.2%, 51.5%)" stroke-width="1.5"></path><path d="M1449.78 536.77L1432.65 657.2" stroke="hsl(228.5, 77.2%, 51.5%)" stroke-width="1.5"></path><path d="M1449.78 536.77L1428.78 408.66" stroke="hsl(228.5, 77.2%, 51.5%)" stroke-width="1.5"></path><path d="M1449.78 536.77L1570.47 395.64" stroke="hsl(228.5, 77.2%, 51.5%)" stroke-width="1.5"></path><path d="M1449.78 536.77L1590.16 664.74" stroke="hsl(228.5, 77.2%, 51.5%)" stroke-width="1.5"></path><path d="M1449.78 536.77L1286.22 639.75" stroke="hsl(228.5, 77.2%, 51.5%)" stroke-width="1.5"></path><path d="M1603.83 -80.6L1603.83 -80.6" stroke="hsl(228.5, 77.2%, 51.5%)" stroke-width="1.5"></path><path d="M1603.83 -80.6L1603.73 65.13" stroke="hsl(228.5, 77.2%, 51.5%)" stroke-width="1.5"></path><path d="M1603.83 -80.6L1424.88 -80.86" stroke="hsl(228.5, 77.2%, 51.5%)" stroke-width="1.5"></path><path d="M1603.83 -80.6L1410.25 51.67" stroke="hsl(228.5, 77.2%, 51.5%)" stroke-width="1.5"></path><path d="M1603.83 -80.6L1603.39 192.6" stroke="hsl(228.5, 77.2%, 51.5%)" stroke-width="1.5"></path><path d="M1603.83 -80.6L1257.81 -80.58" stroke="hsl(228.5, 77.2%, 51.5%)" stroke-width="1.5"></path><path d="M1603.83 -80.6L1303.63 91.64" stroke="hsl(228.5, 77.2%, 51.5%)" stroke-width="1.5"></path><path d="M-60.27 517.07L-60.27 517.07" stroke="hsl(228.5, 77.2%, 51.5%)" stroke-width="1.5"></path><path d="M-60.27 517.07L49.14 651.58" stroke="hsl(228.5, 77.2%, 51.5%)" stroke-width="1.5"></path><path d="M-60.27 517.07L202.58 556.91" stroke="hsl(228.5, 77.2%, 51.5%)" stroke-width="1.5"></path><path d="M-60.27 517.07L200.97 699.07" stroke="hsl(228.5, 77.2%, 51.5%)" stroke-width="1.5"></path><path d="M-60.27 517.07L349.37 696.53" stroke="hsl(228.5, 77.2%, 51.5%)" stroke-width="1.5"></path><path d="M-60.27 517.07L398.3 557.36" stroke="hsl(228.5, 77.2%, 51.5%)" stroke-width="1.5"></path><path d="M-60.27 517.07L488.83 535.56" stroke="hsl(228.5, 77.2%, 51.5%)" stroke-width="1.5"></path><path d="M49.14 651.58L49.14 651.58" stroke="hsl(228.5, 77.2%, 51.5%)" stroke-width="1.5"></path><path d="M49.14 651.58L200.97 699.07" stroke="hsl(228.5, 77.2%, 51.5%)" stroke-width="1.5"></path><path d="M49.14 651.58L202.58 556.91" stroke="hsl(228.5, 77.2%, 51.5%)" stroke-width="1.5"></path><path d="M49.14 651.58L349.37 696.53" stroke="hsl(228.5, 77.2%, 51.5%)" stroke-width="1.5"></path><path d="M49.14 651.58L398.3 557.36" stroke="hsl(228.5, 77.2%, 51.5%)" stroke-width="1.5"></path><path d="M202.58 556.91L202.58 556.91" stroke="hsl(228.5, 77.2%, 51.5%)" stroke-width="1.5"></path><path d="M202.58 556.91L200.97 699.07" stroke="hsl(228.5, 77.2%, 51.5%)" stroke-width="1.5"></path><path d="M202.58 556.91L398.3 557.36" stroke="hsl(228.5, 77.2%, 51.5%)" stroke-width="1.5"></path><path d="M202.58 556.91L349.37 696.53" stroke="hsl(228.5, 77.2%, 51.5%)" stroke-width="1.5"></path><path d="M200.97 699.07L200.97 699.07" stroke="hsl(228.5, 77.2%, 51.5%)" stroke-width="1.5"></path><path d="M200.97 699.07L349.37 696.53" stroke="hsl(228.5, 77.2%, 51.5%)" stroke-width="1.5"></path><path d="M200.97 699.07L398.3 557.36" stroke="hsl(228.5, 77.2%, 51.5%)" stroke-width="1.5"></path><path d="M200.97 699.07L488.83 535.56" stroke="hsl(228.5, 77.2%, 51.5%)" stroke-width="1.5"></path><path d="M398.3 557.36L398.3 557.36" stroke="hsl(228.5, 77.2%, 51.5%)" stroke-width="1.5"></path><path d="M398.3 557.36L488.83 535.56" stroke="hsl(228.5, 77.2%, 51.5%)" stroke-width="1.5"></path><path d="M398.3 557.36L349.37 696.53" stroke="hsl(228.5, 77.2%, 51.5%)" stroke-width="1.5"></path><path d="M398.3 557.36L550.27 691.24" stroke="hsl(228.5, 77.2%, 51.5%)" stroke-width="1.5"></path><path d="M349.37 696.53L349.37 696.53" stroke="hsl(228.5, 77.2%, 51.5%)" stroke-width="1.5"></path><path d="M349.37 696.53L550.27 691.24" stroke="hsl(228.5, 77.2%, 51.5%)" stroke-width="1.5"></path><path d="M349.37 696.53L488.83 535.56" stroke="hsl(228.5, 77.2%, 51.5%)" stroke-width="1.5"></path><path d="M488.83 535.56L488.83 535.56" stroke="hsl(228.5, 77.2%, 51.5%)" stroke-width="1.5"></path><path d="M488.83 535.56L550.27 691.24" stroke="hsl(228.5, 77.2%, 51.5%)" stroke-width="1.5"></path><path d="M488.83 535.56L668.29 521.68" stroke="hsl(228.5, 77.2%, 51.5%)" stroke-width="1.5"></path><path d="M488.83 535.56L667.66 675.08" stroke="hsl(228.5, 77.2%, 51.5%)" stroke-width="1.5"></path><path d="M550.27 691.24L550.27 691.24" stroke="hsl(228.5, 77.2%, 51.5%)" stroke-width="1.5"></path><path d="M550.27 691.24L668.29 521.68" stroke="hsl(228.5, 77.2%, 51.5%)" stroke-width="1.5"></path><path d="M550.27 691.24L834.19 710.05" stroke="hsl(228.5, 77.2%, 51.5%)" stroke-width="1.5"></path><path d="M668.29 521.68L668.29 521.68" stroke="hsl(228.5, 77.2%, 51.5%)" stroke-width="1.5"></path><path d="M668.29 521.68L798.39 503.19" stroke="hsl(228.5, 77.2%, 51.5%)" stroke-width="1.5"></path><path d="M858.49 347.55L858.49 347.55" stroke="hsl(228.5, 77.2%, 51.5%)" stroke-width="1.5"></path><path d="M858.49 347.55L972.16 362.6" stroke="hsl(228.5, 77.2%, 51.5%)" stroke-width="1.5"></path><path d="M858.49 347.55L798.39 503.19" stroke="hsl(228.5, 77.2%, 51.5%)" stroke-width="1.5"></path><path d="M798.39 503.19L798.39 503.19" stroke="hsl(228.5, 77.2%, 51.5%)" stroke-width="1.5"></path><path d="M798.39 503.19L1007.21 503.39" stroke="hsl(228.5, 77.2%, 51.5%)" stroke-width="1.5"></path><path d="M834.19 710.05L834.19 710.05" stroke="hsl(228.5, 77.2%, 51.5%)" stroke-width="1.5"></path><path d="M834.19 710.05L798.39 503.19" stroke="hsl(228.5, 77.2%, 51.5%)" stroke-width="1.5"></path><path d="M834.19 710.05L668.29 521.68" stroke="hsl(228.5, 77.2%, 51.5%)" stroke-width="1.5"></path><path d="M972.16 362.6L972.16 362.6" stroke="hsl(228.5, 77.2%, 51.5%)" stroke-width="1.5"></path><path d="M972.16 362.6L1097.36 411.43" stroke="hsl(228.5, 77.2%, 51.5%)" stroke-width="1.5"></path><path d="M972.16 362.6L1007.21 503.39" stroke="hsl(228.5, 77.2%, 51.5%)" stroke-width="1.5"></path><path d="M1007.21 503.39L1007.21 503.39" stroke="hsl(228.5, 77.2%, 51.5%)" stroke-width="1.5"></path><path d="M1007.21 503.39L1097.36 411.43" stroke="hsl(228.5, 77.2%, 51.5%)" stroke-width="1.5"></path><path d="M1007.21 503.39L1144.89 506.55" stroke="hsl(228.5, 77.2%, 51.5%)" stroke-width="1.5"></path><path d="M1097.36 411.43L1097.36 411.43" stroke="hsl(228.5, 77.2%, 51.5%)" stroke-width="1.5"></path><path d="M1097.36 411.43L1144.89 506.55" stroke="hsl(228.5, 77.2%, 51.5%)" stroke-width="1.5"></path><path d="M1144.89 506.55L1144.89 506.55" stroke="hsl(228.5, 77.2%, 51.5%)" stroke-width="1.5"></path><path d="M1144.89 506.55L1242.5 555.95" stroke="hsl(228.5, 77.2%, 51.5%)" stroke-width="1.5"></path><path d="M1144.89 506.55L1144.35 639.21" stroke="hsl(228.5, 77.2%, 51.5%)" stroke-width="1.5"></path><path d="M1144.89 506.55L1286.25 388.11" stroke="hsl(228.5, 77.2%, 51.5%)" stroke-width="1.5"></path><path d="M1144.89 506.55L1286.22 639.75" stroke="hsl(228.5, 77.2%, 51.5%)" stroke-width="1.5"></path><path d="M1144.35 639.21L1144.35 639.21" stroke="hsl(228.5, 77.2%, 51.5%)" stroke-width="1.5"></path><path d="M1144.35 639.21L1242.5 555.95" stroke="hsl(228.5, 77.2%, 51.5%)" stroke-width="1.5"></path><path d="M1144.35 639.21L1286.22 639.75" stroke="hsl(228.5, 77.2%, 51.5%)" stroke-width="1.5"></path><path d="M1144.35 639.21L1007.21 503.39" stroke="hsl(228.5, 77.2%, 51.5%)" stroke-width="1.5"></path><path d="M1257.81 -80.58L1257.81 -80.58" stroke="hsl(228.5, 77.2%, 51.5%)" stroke-width="1.5"></path><path d="M1257.81 -80.58L1424.88 -80.86" stroke="hsl(228.5, 77.2%, 51.5%)" stroke-width="1.5"></path><path d="M1286.25 388.11L1286.25 388.11" stroke="hsl(228.5, 77.2%, 51.5%)" stroke-width="1.5"></path><path d="M1286.25 388.11L1428.78 408.66" stroke="hsl(228.5, 77.2%, 51.5%)" stroke-width="1.5"></path><path d="M1286.25 388.11L1242.5 555.95" stroke="hsl(228.5, 77.2%, 51.5%)" stroke-width="1.5"></path><path d="M1286.25 388.11L1097.36 411.43" stroke="hsl(228.5, 77.2%, 51.5%)" stroke-width="1.5"></path><path d="M1286.25 388.11L1449.78 536.77" stroke="hsl(228.5, 77.2%, 51.5%)" stroke-width="1.5"></path><path d="M1242.5 555.95L1242.5 555.95" stroke="hsl(228.5, 77.2%, 51.5%)" stroke-width="1.5"></path><path d="M1242.5 555.95L1286.22 639.75" stroke="hsl(228.5, 77.2%, 51.5%)" stroke-width="1.5"></path><path d="M1242.5 555.95L1097.36 411.43" stroke="hsl(228.5, 77.2%, 51.5%)" stroke-width="1.5"></path><path d="M1242.5 555.95L1449.78 536.77" stroke="hsl(228.5, 77.2%, 51.5%)" stroke-width="1.5"></path><path d="M1286.22 639.75L1286.22 639.75" stroke="hsl(228.5, 77.2%, 51.5%)" stroke-width="1.5"></path><path d="M1286.22 639.75L1432.65 657.2" stroke="hsl(228.5, 77.2%, 51.5%)" stroke-width="1.5"></path><path d="M1424.88 -80.86L1424.88 -80.86" stroke="hsl(228.5, 77.2%, 51.5%)" stroke-width="1.5"></path><path d="M1424.88 -80.86L1410.25 51.67" stroke="hsl(228.5, 77.2%, 51.5%)" stroke-width="1.5"></path><path d="M1424.88 -80.86L1603.73 65.13" stroke="hsl(228.5, 77.2%, 51.5%)" stroke-width="1.5"></path><path d="M1410.25 51.67L1410.25 51.67" stroke="hsl(228.5, 77.2%, 51.5%)" stroke-width="1.5"></path><path d="M1410.25 51.67L1603.73 65.13" stroke="hsl(228.5, 77.2%, 51.5%)" stroke-width="1.5"></path><path d="M1410.25 51.67L1257.81 -80.58" stroke="hsl(228.5, 77.2%, 51.5%)" stroke-width="1.5"></path><path d="M1428.78 408.66L1428.78 408.66" stroke="hsl(228.5, 77.2%, 51.5%)" stroke-width="1.5"></path><path d="M1428.78 408.66L1570.47 395.64" stroke="hsl(228.5, 77.2%, 51.5%)" stroke-width="1.5"></path><path d="M1428.78 408.66L1558.78 500.32" stroke="hsl(228.5, 77.2%, 51.5%)" stroke-width="1.5"></path><path d="M1432.65 657.2L1432.65 657.2" stroke="hsl(228.5, 77.2%, 51.5%)" stroke-width="1.5"></path><path d="M1432.65 657.2L1590.16 664.74" stroke="hsl(228.5, 77.2%, 51.5%)" stroke-width="1.5"></path><path d="M1432.65 657.2L1558.78 500.32" stroke="hsl(228.5, 77.2%, 51.5%)" stroke-width="1.5"></path><path d="M1603.73 65.13L1603.73 65.13" stroke="hsl(228.5, 77.2%, 51.5%)" stroke-width="1.5"></path><path d="M1603.73 65.13L1603.39 192.6" stroke="hsl(228.5, 77.2%, 51.5%)" stroke-width="1.5"></path><path d="M1603.73 65.13L1303.63 91.64" stroke="hsl(228.5, 77.2%, 51.5%)" stroke-width="1.5"></path><path d="M1603.73 65.13L1570.47 395.64" stroke="hsl(228.5, 77.2%, 51.5%)" stroke-width="1.5"></path><path d="M1603.39 192.6L1603.39 192.6" stroke="hsl(228.5, 77.2%, 51.5%)" stroke-width="1.5"></path><path d="M1603.39 192.6L1570.47 395.64" stroke="hsl(228.5, 77.2%, 51.5%)" stroke-width="1.5"></path><path d="M1570.47 395.64L1570.47 395.64" stroke="hsl(228.5, 77.2%, 51.5%)" stroke-width="1.5"></path><path d="M1570.47 395.64L1558.78 500.32" stroke="hsl(228.5, 77.2%, 51.5%)" stroke-width="1.5"></path><path d="M1570.47 395.64L1590.16 664.74" stroke="hsl(228.5, 77.2%, 51.5%)" stroke-width="1.5"></path><path d="M1570.47 395.64L1286.25 388.11" stroke="hsl(228.5, 77.2%, 51.5%)" stroke-width="1.5"></path><path d="M1558.78 500.32L1558.78 500.32" stroke="hsl(228.5, 77.2%, 51.5%)" stroke-width="1.5"></path><path d="M1590.16 664.74L1590.16 664.74" stroke="hsl(228.5, 77.2%, 51.5%)" stroke-width="1.5"></path><path d="M1590.16 664.74L1558.78 500.32" stroke="hsl(228.5, 77.2%, 51.5%)" stroke-width="1.5"></path><path d="M1590.16 664.74L1428.78 408.66" stroke="hsl(228.5, 77.2%, 51.5%)" stroke-width="1.5"></path><circle r="25" cx="709.7" cy="400.89" fill="url(#SvgjsRadialGradient1570)"></circle><circle r="25" cx="667.66" cy="675.08" fill="url(#SvgjsRadialGradient1570)"></circle><circle r="25" cx="941.48" cy="658.17" fill="url(#SvgjsRadialGradient1570)"></circle><circle r="25" cx="1107.8" cy="258.53" fill="url(#SvgjsRadialGradient1570)"></circle><circle r="25" cx="1303.63" cy="91.64" fill="url(#SvgjsRadialGradient1570)"></circle><circle r="25" cx="1449.78" cy="536.77" fill="url(#SvgjsRadialGradient1570)"></circle><circle r="25" cx="1603.83" cy="-80.6" fill="url(#SvgjsRadialGradient1570)"></circle><circle r="5" cx="-60.27" cy="517.07" fill="#8b9ad9"></circle><circle r="5" cx="49.14" cy="651.58" fill="#8b9ad9"></circle><circle r="5" cx="202.58" cy="556.91" fill="#8b9ad9"></circle><circle r="5" cx="200.97" cy="699.07" fill="#8b9ad9"></circle><circle r="5" cx="398.3" cy="557.36" fill="#8b9ad9"></circle><circle r="5" cx="349.37" cy="696.53" fill="#8b9ad9"></circle><circle r="5" cx="488.83" cy="535.56" fill="#8b9ad9"></circle><circle r="5" cx="550.27" cy="691.24" fill="#8b9ad9"></circle><circle r="5" cx="668.29" cy="521.68" fill="#8b9ad9"></circle><circle r="5" cx="858.49" cy="347.55" fill="#8b9ad9"></circle><circle r="5" cx="798.39" cy="503.19" fill="#8b9ad9"></circle><circle r="5" cx="834.19" cy="710.05" fill="#8b9ad9"></circle><circle r="5" cx="972.16" cy="362.6" fill="#8b9ad9"></circle><circle r="5" cx="1007.21" cy="503.39" fill="#8b9ad9"></circle><circle r="5" cx="1097.36" cy="411.43" fill="#8b9ad9"></circle><circle r="5" cx="1144.89" cy="506.55" fill="#8b9ad9"></circle><circle r="5" cx="1144.35" cy="639.21" fill="#8b9ad9"></circle><circle r="5" cx="1257.81" cy="-80.58" fill="#8b9ad9"></circle><circle r="5" cx="1286.25" cy="388.11" fill="#8b9ad9"></circle><circle r="5" cx="1242.5" cy="555.95" fill="#8b9ad9"></circle><circle r="5" cx="1286.22" cy="639.75" fill="#8b9ad9"></circle><circle r="5" cx="1424.88" cy="-80.86" fill="#8b9ad9"></circle><circle r="5" cx="1410.25" cy="51.67" fill="#8b9ad9"></circle><circle r="5" cx="1428.78" cy="408.66" fill="#8b9ad9"></circle><circle r="5" cx="1432.65" cy="657.2" fill="#8b9ad9"></circle><circle r="5" cx="1603.73" cy="65.13" fill="#8b9ad9"></circle><circle r="5" cx="1603.39" cy="192.6" fill="#8b9ad9"></circle><circle r="5" cx="1570.47" cy="395.64" fill="#8b9ad9"></circle><circle r="5" cx="1558.78" cy="500.32" fill="#8b9ad9"></circle><circle r="5" cx="1590.16" cy="664.74" fill="#8b9ad9"></circle></g><defs><mask id="SvgjsMask1568"><rect width="1438" height="560" fill="#ffffff"></rect></mask><linearGradient x1="15.26%" y1="-39.2%" x2="84.74%" y2="139.2%" gradientUnits="userSpaceOnUse" id="SvgjsLinearGradient1569"><stop stop-color="#0e2a47" offset="0"></stop><stop stop-color="rgba(0, 0, 0, 1)" offset="1"></stop></linearGradient><radialGradient id="SvgjsRadialGradient1570"><stop stop-color="#ffffff" offset="0.1"></stop><stop stop-color="#1735b3" offset="0.2"></stop><stop stop-color="rgba(23, 53, 179, 0)" offset="1"></stop></radialGradient></defs></svg>